<?xml version="1.0" encoding="utf-8"?>
<!-- Generator: Adobe Illustrator 23.0.2, SVG Export Plug-In . SVG Version: 6.00 Build 0)  -->
<svg version="1.1"
	 id="svg3867" xmlns:cc="http://creativecommons.org/ns#" xmlns:dc="http://purl.org/dc/elements/1.1/" xmlns:inkscape="http://www.inkscape.org/namespaces/inkscape" xmlns:ns1="http://sozi.baierouge.fr" xmlns:rdf="http://www.w3.org/1999/02/22-rdf-syntax-ns#" xmlns:sodipodi="http://sodipodi.sourceforge.net/DTD/sodipodi-0.dtd"
	 xmlns="http://www.w3.org/2000/svg" xmlns:xlink="http://www.w3.org/1999/xlink" x="0px" y="0px" viewBox="0 0 80.1 136.5"
	 style="enable-background:new 0 0 80.1 136.5;" xml:space="preserve">
<style type="text/css">
	.st0{fill:#00A03C;}
</style>
<sodipodi:namedview  bordercolor="#666666" borderopacity="1.0" fit-margin-bottom="0" fit-margin-left="0" fit-margin-right="0" fit-margin-top="0" id="base" inkscape:current-layer="layer1" inkscape:cx="267.07143" inkscape:cy="92.222962" inkscape:document-units="px" inkscape:pageopacity="0.0" inkscape:pageshadow="2" inkscape:window-height="455" inkscape:window-maximized="0" inkscape:window-width="535" inkscape:window-x="25" inkscape:window-y="25" inkscape:zoom="0.35" pagecolor="#ffffff" showgrid="false">
	</sodipodi:namedview>
<g id="layer1" transform="translate(-107.93 -485.85)" inkscape:groupmode="layer" inkscape:label="Layer 1">
	<path id="path3069" inkscape:connector-curvature="0" class="st0" d="M171.9,486c-0.6-0.3-1.4,0-1.6,0.7l-3.7,8.5l17.6,7.6l3.7-8.5
		c0.3-0.6,0-1.4-0.7-1.6C187.2,492.5,171.9,486,171.9,486z M167,498.6c-3.3,11-23.2,15-28.3,26.2l43.2,18.5
		c4.6-11.4-6.2-28.5-0.5-38.5L167,498.6L167,498.6z M138.4,528.9l-11.6,26.9l40.7,17.5l11.6-26.9
		C179.1,546.4,138.4,528.9,138.4,528.9z M125.8,560.8c-0.6-0.3-1.7,0-1.7,1.4c0.3,5.7-1.1,10.6-3.4,15.8
		c-3.6,8.1-20.5,26.8-8.5,33.1c4.3,2.3,7.3-1.5,8.7-1c1.4,0.5,0.3,4.9,4.1,6.5c3.7,1.6,6.2-2.1,7.5-1.5c1.3,0.6,0.4,6.1,5.2,7
		c15.3,2.9,14.5-20.6,18.1-29c2.3-5.2,4.8-9.7,9.1-13.4c1.1-0.9,0.5-1.9-0.1-2.2L125.8,560.8L125.8,560.8z"/>
</g>
</svg>
